HIERARCHY
ROOT Junyuan_V1:Solving:Hips
{
	OFFSET 0.000000 0.000000 0.000000
	CHANNELS 6 Xposition Yposition Zposition Xrotation Yrotation Zrotation
	JOINT Junyuan_V1:Solving:Spine
	{
		OFFSET 0.000000 -11.180205 2.228564
		CHANNELS 6 Xposition Yposition Zposition Xrotation Yrotation Zrotation
		JOINT Junyuan_V1:Solving:Spine1
		{
			OFFSET 0.000000 -8.682996 1.531049
			CHANNELS 6 Xposition Yposition Zposition Xrotation Yrotation Zrotation
			JOINT Junyuan_V1:Solving:Spine2
			{
				OFFSET 0.000000 -8.783394 0.768450
				CHANNELS 6 Xposition Yposition Zposition Xrotation Yrotation Zrotation
				JOINT Junyuan_V1:Solving:Spine3
				{
					OFFSET 0.000000 -8.816944 0.000000
					CHANNELS 6 Xposition Yposition Zposition Xrotation Yrotation Zrotation
					JOINT Junyuan_V1:Solving:Neck
					{
						OFFSET 0.000000 -11.336071 -1.133605
						CHANNELS 6 Xposition Yposition Zposition Xrotation Yrotation Zrotation
						JOINT Junyuan_V1:Solving:Neck1
						{
							OFFSET 0.000000 -7.643246 -0.668695
							CHANNELS 6 Xposition Yposition Zposition Xrotation Yrotation Zrotation
							JOINT Junyuan_V1:Solving:Head
							{
								OFFSET 0.000000 -7.555870 -1.332303
								CHANNELS 6 Xposition Yposition Zposition Xrotation Yrotation Zrotation
								JOINT Junyuan_V1:Solving:HeadEnd
								{
									OFFSET 0.000000 -9.728081 0.000002
									CHANNELS 6 Xposition Yposition Zposition Xrotation Yrotation Zrotation
									End Site
									{
										OFFSET 0.000000 -9.728081 0.000002
									}
								}
							}
						}
					}
					JOINT Junyuan_V1:Solving:RightShoulder
					{
						OFFSET 0.000000 -8.097195 -5.270916
						CHANNELS 6 Xposition Yposition Zposition Xrotation Yrotation Zrotation
						JOINT Junyuan_V1:Solving:RightArm
						{
							OFFSET -20.762394 -0.000008 0.000000
							CHANNELS 6 Xposition Yposition Zposition Xrotation Yrotation Zrotation
							JOINT Junyuan_V1:Solving:RightForeArm
							{
								OFFSET -29.048946 -0.000008 0.000000
								CHANNELS 6 Xposition Yposition Zposition Xrotation Yrotation Zrotation
								JOINT Junyuan_V1:Solving:RightHand
								{
									OFFSET -22.031235 -0.000008 0.000000
									CHANNELS 6 Xposition Yposition Zposition Xrotation Yrotation Zrotation
									JOINT Junyuan_V1:Solving:RightHandThumb1
									{
										OFFSET -3.579254 2.890213 -2.661497
										CHANNELS 6 Xposition Yposition Zposition Xrotation Yrotation Zrotation
										End Site
										{
											OFFSET -5.229485 0.000000 -5.277840
										}
									}
									JOINT Junyuan_V1:Solving:RightHandMiddle1
									{
										OFFSET -9.544678 -0.000004 0.061184
										CHANNELS 6 Xposition Yposition Zposition Xrotation Yrotation Zrotation
										End Site
										{
											OFFSET -7.429878 -0.000004 0.000000
										}
									}
								}
							}
						}
					}
					JOINT Junyuan_V1:Solving:LeftShoulder
					{
						OFFSET 0.000000 -8.097195 -5.270916
						CHANNELS 6 Xposition Yposition Zposition Xrotation Yrotation Zrotation
						JOINT Junyuan_V1:Solving:LeftArm
						{
							OFFSET 20.762394 -0.000008 0.000000
							CHANNELS 6 Xposition Yposition Zposition Xrotation Yrotation Zrotation
							JOINT Junyuan_V1:Solving:LeftForeArm
							{
								OFFSET 29.048946 -0.000008 0.000000
								CHANNELS 6 Xposition Yposition Zposition Xrotation Yrotation Zrotation
								JOINT Junyuan_V1:Solving:LeftHand
								{
									OFFSET 22.031235 -0.000008 0.000000
									CHANNELS 6 Xposition Yposition Zposition Xrotation Yrotation Zrotation
									JOINT Junyuan_V1:Solving:LeftHandThumb1
									{
										OFFSET 3.579254 2.890213 -2.661497
										CHANNELS 6 Xposition Yposition Zposition Xrotation Yrotation Zrotation
										End Site
										{
											OFFSET 5.229485 0.000000 -5.277840
										}
									}
									JOINT Junyuan_V1:Solving:LeftHandMiddle1
									{
										OFFSET 9.544678 -0.000004 0.061184
										CHANNELS 6 Xposition Yposition Zposition Xrotation Yrotation Zrotation
										End Site
										{
											OFFSET 7.429878 -0.000004 0.000000
										}
									}
								}
							}
						}
					}
				}
			}
		}
	}
	JOINT Junyuan_V1:Solving:RightUpLeg
	{
		OFFSET -10.825166 0.000000 0.000000
		CHANNELS 6 Xposition Yposition Zposition Xrotation Yrotation Zrotation
		JOINT Junyuan_V1:Solving:RightLeg
		{
			OFFSET 0.000000 43.678444 -0.000006
			CHANNELS 6 Xposition Yposition Zposition Xrotation Yrotation Zrotation
			JOINT Junyuan_V1:Solving:RightFoot
			{
				OFFSET 0.000000 36.488441 -0.000006
				CHANNELS 6 Xposition Yposition Zposition Xrotation Yrotation Zrotation
				JOINT Junyuan_V1:Solving:RightForeFoot
				{
					OFFSET 0.000000 3.967834 -0.000000
					CHANNELS 6 Xposition Yposition Zposition Xrotation Yrotation Zrotation
					JOINT Junyuan_V1:Solving:RightToeBase
					{
						OFFSET 0.000000 0.000000 -15.539299
						CHANNELS 6 Xposition Yposition Zposition Xrotation Yrotation Zrotation
						JOINT Junyuan_V1:Solving:RightToeBaseEnd
						{
							OFFSET 0.000000 0.000000 -3.486985
							CHANNELS 6 Xposition Yposition Zposition Xrotation Yrotation Zrotation
							End Site
							{
								OFFSET 0.000000 -3.486992 0.000000
							}
						}
					}
				}
			}
		}
	}
	JOINT Junyuan_V1:Solving:LeftUpLeg
	{
		OFFSET 10.825166 0.000000 0.000000
		CHANNELS 6 Xposition Yposition Zposition Xrotation Yrotation Zrotation
		JOINT Junyuan_V1:Solving:LeftLeg
		{
			OFFSET 0.000000 43.678444 -0.000006
			CHANNELS 6 Xposition Yposition Zposition Xrotation Yrotation Zrotation
			JOINT Junyuan_V1:Solving:LeftFoot
			{
				OFFSET 0.000000 36.488441 -0.000006
				CHANNELS 6 Xposition Yposition Zposition Xrotation Yrotation Zrotation
				JOINT Junyuan_V1:Solving:LeftForeFoot
				{
					OFFSET 0.000000 3.967834 -0.000000
					CHANNELS 6 Xposition Yposition Zposition Xrotation Yrotation Zrotation
					JOINT Junyuan_V1:Solving:LeftToeBase
					{
						OFFSET 0.000000 0.000000 -15.539299
						CHANNELS 6 Xposition Yposition Zposition Xrotation Yrotation Zrotation
						JOINT Junyuan_V1:Solving:LeftToeBaseEnd
						{
							OFFSET 0.000000 0.000000 -3.974441
							CHANNELS 6 Xposition Yposition Zposition Xrotation Yrotation Zrotation
							End Site
							{
								OFFSET 0.000000 -3.974442 0.000000
							}
						}
					}
				}
			}
		}
	}
}
MOTION
Frames: 4
Frame Time: 0.041667
60.919998 -28.887768 -85.677269 64.146849 -172.126354 -4.194534 -0.000008 -11.180214 2.228558 17.614831 0.914005 0.711996 0.000001 -8.683010 1.531037 4.309174 0.124324 -0.256382 0.000008 -8.783381 0.768445 4.494907 -1.548713 -1.093658 0.000003 -8.816935 0.000015 -1.415685 0.345035 -1.010889 0.000005 -11.336086 -1.133577 -22.862996 -6.112163 2.790945 0.000003 -7.643260 -0.668685 6.305424 -1.018089 -0.250838 0.000013 -7.555868 -1.332296 9.729837 -0.081349 -0.226668 0.000011 -9.728104 0.000009 0.000004 -0.000000 0.000000 -0.000002 -8.097218 -5.270919 0.000002 10.775814 15.266076 -20.762403 -0.000006 -0.000000 -39.443530 -33.351790 -94.809890 -29.048969 -0.000006 -0.000003 -18.670155 -31.432537 -9.993662 -22.031202 -0.000025 -0.000005 1.022063 -2.913465 19.341158 -3.579291 2.890225 -2.661492 0.000002 0.000002 0.000002 -9.544703 0.000001 0.061188 0.000000 -0.000001 -0.000003 -0.000002 -8.097210 -5.270916 0.000000 -13.468110 -13.521128 20.762390 0.000001 0.000002 -38.195910 39.166811 90.564968 29.048935 -0.000018 -0.000005 -20.941702 24.002137 8.848184 22.031231 -0.000018 0.000010 0.001677 0.006773 -14.003595 3.579282 2.890208 -2.661501 0.000008 -0.000002 -0.000004 9.544688 -0.000010 0.061173 0.000008 -0.000003 0.000003 -10.825175 -0.000008 -0.000001 -51.455633 13.243649 5.341630 0.000016 43.678429 -0.000004 34.819393 0.000001 0.000001 0.000016 36.488438 -0.000008 -3.598200 7.754918 -3.610708 0.000015 3.967827 -0.000006 0.000000 -0.000004 0.000000 0.000002 0.000003 -15.539316 9.398325 -0.000007 0.000001 -0.000006 -0.000015 -3.486956 0.000003 -0.000004 0.000003 10.825149 0.000007 -0.000005 -46.157028 -26.345657 -18.506176 -0.000003 43.678474 -0.000005 16.946087 -0.000001 0.000004 0.000007 36.488419 -0.000008 10.122832 -8.487613 11.298821 -0.000005 3.967834 0.000008 -0.000000 0.000000 -0.000000 0.000002 0.000006 -15.539296 1.810591 0.000004 -0.000000 -0.000008 -0.000007 -3.974443 0.000001 0.000003 -0.000000 
60.739544 -28.436518 -85.384445 63.040945 -172.229504 -4.392299 0.000004 -11.180194 2.228572 17.455209 1.122845 0.846278 0.000010 -8.683020 1.531054 4.377656 0.107846 -0.246213 0.000003 -8.783405 0.768436 4.676396 -1.604453 -1.057996 0.000005 -8.816952 -0.000001 -1.584423 0.324354 -1.064025 -0.000009 -11.336102 -1.133615 -23.244983 -6.085445 2.829032 0.000000 -7.643238 -0.668693 6.240220 -0.955149 -0.302359 0.000001 -7.555849 -1.332311 9.502488 -0.070773 -0.258998 0.000006 -9.728104 0.000014 -0.000002 -0.000000 0.000000 0.000004 -8.097225 -5.270926 -0.000008 10.619538 15.277453 -20.762390 -0.000005 -0.000008 -40.424652 -32.305142 -94.600053 -29.048962 -0.000016 0.000000 -19.900519 -31.183304 -10.616206 -22.031235 -0.000027 -0.000011 1.086744 -3.098236 19.340119 -3.579296 2.890201 -2.661486 0.000008 0.000005 0.000005 -9.544711 -0.000001 0.061187 0.000001 0.000003 -0.000004 0.000003 -8.097210 -5.270922 -0.000003 -13.252865 -13.514245 20.762403 0.000002 -0.000013 -39.323629 38.843696 90.192983 29.048944 -0.000030 -0.000001 -21.448172 23.441081 8.882559 22.031233 -0.000015 -0.000003 -0.016303 -0.064225 -14.229435 3.579275 2.890207 -2.661505 0.000009 0.000002 -0.000003 9.544672 -0.000009 0.061189 0.000001 0.000001 0.000003 -10.825172 0.000018 0.000005 -53.503392 13.703607 5.779648 -0.000010 43.678425 0.000017 35.827863 -0.000000 0.000000 -0.000012 36.488434 -0.000012 -3.786037 7.213268 -3.671222 0.000004 3.967827 -0.000006 -0.000000 0.000000 -0.000001 0.000009 0.000007 -15.539288 9.539139 0.000000 0.000001 0.000003 -0.000008 -3.486972 -0.000001 -0.000000 0.000003 10.825160 0.000007 0.000006 -48.913423 -27.255615 -19.167145 0.000004 43.678432 -0.000006 18.906601 0.000003 0.000002 0.000011 36.488461 -0.000010 8.814836 -7.202312 10.788474 0.000002 3.967827 -0.000011 0.000000 0.000002 0.000000 0.000008 0.000009 -15.539296 0.096549 -0.000002 0.000000 0.000003 -0.000008 -3.974439 0.000000 -0.000001 0.000000 
60.583134 -27.991369 -85.068611 61.942391 -172.333309 -4.473858 0.000011 -11.180192 2.228562 17.288307 1.248503 0.864140 0.000000 -8.682998 1.531037 4.449213 0.094879 -0.238454 0.000012 -8.783400 0.768446 4.844290 -1.652792 -1.017748 -0.000002 -8.816923 0.000003 -1.723419 0.302223 -1.095160 -0.000010 -11.336061 -1.133597 -23.630759 -6.017506 2.862678 0.000018 -7.643249 -0.668694 6.142338 -0.892556 -0.353804 -0.000006 -7.555870 -1.332290 9.313858 -0.061138 -0.270928 0.000004 -9.728104 -0.000015 0.000006 -0.000000 0.000001 -0.000007 -8.097183 -5.270913 -0.000005 10.486120 15.317917 -20.762411 0.000006 -0.000002 -41.438802 -31.262572 -94.420255 -29.048965 -0.000012 -0.000005 -21.034901 -30.867199 -11.161076 -22.031223 -0.000017 -0.000024 1.185943 -3.365026 19.427305 -3.579273 2.890217 -2.661504 0.000005 -0.000002 -0.000005 -9.544690 0.000005 0.061167 0.000003 0.000001 -0.000005 -0.000006 -8.097176 -5.270914 -0.000003 -13.008823 -13.549577 20.762400 -0.000002 -0.000020 -40.479246 38.518363 89.826707 29.048944 -0.000011 -0.000015 -21.912874 22.810755 8.863916 22.031233 -0.000007 -0.000005 0.023257 0.091133 -14.326928 3.579267 2.890208 -2.661489 -0.000001 0.000007 -0.000003 9.544687 -0.000008 0.061196 0.000001 -0.000003 0.000002 -10.825170 0.000002 0.000001 -55.483751 14.203475 6.123779 -0.000008 43.678448 0.000021 36.789742 0.000001 0.000002 0.000004 36.488434 0.000008 -3.998226 6.713174 -3.771241 0.000003 3.967827 -0.000017 0.000000 -0.000006 0.000001 0.000008 0.000005 -15.539313 9.605260 -0.000001 -0.000001 0.000012 -0.000008 -3.486969 -0.000002 -0.000006 0.000002 10.825167 0.000008 -0.000004 -51.804191 -28.041302 -20.066380 -0.000011 43.678455 -0.000005 20.890719 0.000000 0.000005 0.000007 36.488438 -0.000004 7.920733 -5.980459 10.579538 0.000006 3.967827 -0.000006 -0.000001 -0.000000 -0.000000 -0.000000 -0.000011 -15.539302 0.980731 -0.000001 -0.000001 -0.000008 0.000001 -3.974446 0.000002 0.000002 0.000000 
60.428112 -27.540009 -84.740189 60.847423 -172.520688 -4.428351 0.000001 -11.180215 2.228568 17.153894 1.246279 0.733607 -0.000007 -8.682993 1.531037 4.530013 0.095575 -0.280009 0.000003 -8.783386 0.768457 4.945704 -1.606467 -0.988720 0.000000 -8.816914 -0.000012 -1.839830 0.307242 -1.059937 -0.000011 -11.336079 -1.133600 -23.994641 -5.949705 2.807872 0.000003 -7.643245 -0.668679 6.046406 -0.817242 -0.348157 0.000007 -7.555882 -1.332316 9.093687 -0.056294 -0.269303 -0.000013 -9.728104 0.000006 0.000007 0.000000 -0.000000 0.000001 -8.097198 -5.270920 0.000001 10.344180 15.401098 -20.762392 -0.000017 -0.000002 -42.433735 -30.160435 -94.246550 -29.048960 -0.000016 -0.000007 -22.081196 -30.529600 -11.644264 -22.031242 -0.000008 -0.000003 1.281630 -3.623709 19.492880 -3.579266 2.890205 -2.661491 0.000007 0.000005 0.000005 -9.544688 0.000004 0.061190 0.000001 0.000000 -0.000004 0.000003 -8.097195 -5.270920 0.000009 -12.764933 -13.635434 20.762411 -0.000027 0.000002 -41.714810 38.264639 89.517682 29.048933 -0.000014 -0.000020 -22.479196 22.155535 8.869376 22.031237 -0.000012 -0.000002 0.065302 0.252686 -14.494368 3.579264 2.890217 -2.661489 0.000008 0.000000 -0.000007 9.544677 -0.000002 0.061181 0.000007 0.000001 -0.000001 -10.825153 -0.000010 -0.000002 -57.434029 14.840220 6.471654 0.000008 43.678432 -0.000019 37.723985 0.000000 0.000001 -0.000008 36.488441 -0.000020 -4.275359 6.286661 -3.933185 0.000011 3.967834 0.000011 -0.000000 -0.000005 0.000001 0.000011 -0.000014 -15.539294 9.724469 -0.000000 0.000003 -0.000007 0.000000 -3.486971 0.000000 0.000000 -0.000001 10.825168 -0.000012 0.000008 -54.812224 -28.620899 -21.074538 -0.000001 43.678444 0.000003 22.939069 0.000003 0.000004 -0.000004 36.488434 -0.000009 7.265823 -4.856649 10.518803 0.000003 3.967827 -0.000000 -0.000000 -0.000002 0.000000 0.000002 -0.000002 -15.539306 2.345148 0.000000 -0.000001 -0.000002 -0.000000 -3.974443 0.000000 0.000002 -0.000001 
